<!--version="1.0" encoding="UTF-8"--><svg xmlns="http://www.w3.org/2000/svg" viewBox="0 0 97 104" fill="#1A2544"><path class="nez" d="M51.51 52.99c1.29-.13 2.96-1.2 3.19-2.11.56-2.29-2.16-8.17-4.14-8.18-1.82 0-3.68 6.66-2.68 8.74.79 1.3 2.38 1.69 3.63 1.55z"/><path class="oeil droit" d="M56.83 45.33c.83 0 1.51-.68 1.51-1.51s-.68-1.51-1.51-1.51-1.51.68-1.51 1.51.68 1.51 1.51 1.51z"/><path class="oeil gauche" d="M44.68 43.29c-.83 0-1.51.68-1.51 1.51s.68 1.51 1.51 1.51 1.51-.68 1.51-1.51-.68-1.51-1.51-1.51z"/><g class="oreille droite"><path d="M62.43 35.62c1.69-1.7 4.57-2.08 4.6-2.08l-.04-.02c-.21-.09-3.82-.6-5.09 1.62-.01.21.34.59.53.47z"/><path d="M76.95 35.44c-.24-1.72-.88-3.48-2.78-5.67-2.18-2.51-5.13-3.22-7.71-2.71-2.59.72-4.8 2.5-6.6 6.29-.09.17.37 1.03.59.84.96-2.26 4.01-5.66 6.52-5.99 2.72-.37 5 1.06 6.06 2.18 1.3 1.25 1.93 2.72 2.47 4.3.2.59.29 1.32.05 1.4-.42.13-1.81-.27-2.18-.54-.15-.08-.32.36-.23.49 0 0 .01.02.02.02s.02.03.03.04c.04.05.08.1.13.15.6.73 1.98 2.87 1.47 3.66-.04.05-.08.09-.12.13-.79.65-1.7.35-2.42 0s-.05 0-.15.22c-.1.22-.07.3-.07.3.35.37 1.1 1.6.74 2.03-.3.33-1.38.22-2.42-.61-.04-.03-.07-.02-.13.08-.54.46-1.44.17-1.83.04h-.02s-.09-.04-.15.09c-.05.1-.05.17-.03.18.41.25 1.01.69.69 1.07-.29.3-1.33.02-1.64-.15l-.22-.11c.1.13.67.58 1.35.91.31.16.65.23.99.21.11-.01.22-.06.31-.12.08-.07.15-.15.21-.24.21-.42.13-.75-.07-1.01.25 0 .48-.1.65-.21.4.34 1.07.79 1.94.85.28.02.57-.02.84-.12a.62.62 0 0 0 .29-.24c.06-.08.09-.17.11-.27.11-.52-.18-1.19-.52-1.75.12.03.25.06.38.07.61.1 1.66-.1 1.98-.43.73-.82.34-2.26-.52-3.54.51.2 1.22.26 1.59.17.46-.11.55-.97.41-2.01z"/></g><g class="oreille gauche"><path d="M30.05 36.24H30s4.57.67 6.06 2.43c.2.25.82-.62.7-.83-1.68-2.33-6.53-1.64-6.71-1.6z"/><path d="M30.75 48.49c-.38-.37-.2-1.02-.04-1.39.03-.06-.03-.15-.13-.25-.1-.11-.17-.14-.19-.13 0 0-.01.02-.02.03-1.21 1.22-3.13 2.55-3.6 2.29-.41-.2.59-1.8.91-2.14l.1-.12s.02-.01.03-.02l-.66-.56c-.75.44-2.95 1.31-3.74.47l-.02-.03c-.82-1.05 1-3.6 1.61-4.22.07-.08.01-.17-.22-.43-.22-.25-.24-.25-.28-.24-.85.34-1.87.4-2.53-.02-.31-.2-.48-.5-.5-.93-.11-1.62.64-3.78 2.09-5.73 1.63-2.19 3.62-3.36 5.59-3.49 5.1-.34 7.23 2.73 8.45 5.13.26.19.59-.79.55-1.11-2.18-4.13-4.72-5.49-9.14-5.2-2.25.15-4.97 1.66-7.02 4.41-1.58 2.12-2.1 4.3-1.98 6.13.13.97.57 1.32 1.14 1.67.54.34 1.3.4 2 .36.07 0 .14-.02.21-.03-.85 1.24-1.62 3.1-1 4.28.33.76 1.61.8 2.38.75.48-.05.95-.18 1.4-.34-.33.67-.53 1.45-.09 2.02a.802.802 0 0 0 .28.23c.16.06.34.07.51.04 1.02-.07 2.24-1.18 3.07-2.04-.1.47-.13.97.05 1.33.03.06.08.12.14.17.06.05.14.09.21.11.18.03.36.02.54-.03 1.09-.34 1.82-1.59 1.92-1.73l-.37.23c-.32.21-1.31.79-1.66.49z"/></g><path d="M66.96 71.9c-1.47-1.58-3.81-.75-4.78.15.05-2.68-1.87-6.28-5.77-7.25-3.21-.78-6.13 0-7.55 1.07-1.61 1.23-2.56 2.72-2.41 4.44l.05.29c.93-3.53 4.72-5.91 9.65-4.72 4.83 1.29 5.8 6.34 5.57 7.76.12-.05.21-.15.25-.28.08-.25.13-.52.17-.8.33-.19 2.77-1.51 4.16-.27.02.02.02.04 0 .06-2.78 2.2-3.89 4.1-4.48 5.36-.43.92-.68 1.5-1.5 1.96-.65.37-1.91.3-2.68.07 1.53-1.93 2.61-4.86 1.29-6.58-.05-.07-.24-.25-.24-.25.73 3.11-1.69 6.01-3.23 7.15-3.02 1.95-9.11 3.02-13.56 2.25-2.08-.57-4.12-2.12-5.32-4.56-.57-1.55-1.15-4.71.31-9.07 1.4-4.19 4.48-8.4 8.14-11.95a24.208 24.208 0 0 0 5.61.26c7.26-.18 10.78-.42 14.71-.16.42.07.64.22.69.41.01.23-.22 1.27-.39 1.65-2.96 2.77-7.22 3.55-10.05 4.15-.13.38-.31.74-.51 1.08.14.05.28.06.43.03.26-.08.44-.3.57-.53 2.68.24 7.98-1.7 10.17-4.43l.03-.04.02-.04c.28-.6.58-1.62.55-1.94 0-.05-.02-.09-.03-.14a.207.207 0 0 0-.06-.1c-.28-.35-.87-.34-.99-.36-1.76-.82-5.03-.85-9.52-.62 4.63-1.52 8.22-4.55 9.2-8.23v-.02c.47-2.28-.3-5.37-2.01-8.49-1.67-3.04-3.9-5.58-6.59-7.48l-.48-.3c-.25-.13-.55-.25-.9-.35v-3.42l4.99-2.12a.836.836 0 0 0 0-1.54l-8.71-3.69c-.84-.35-1.78-.35-2.61 0L40.44 24c-.33.14-.49.44-.51.74v5.74c.03.4.35.71.76.71s.73-.32.76-.71v-4.51l3.97 1.69v3.49c-2.01.42-3.57 1.05-4.4 1.82-2.23 2.13-4.2 5.39-5.13 9.37-.83 3.57-1.01 7.09-.18 9.19l.03.07c1.44 2.66 4.08 3.94 7.48 4.8.32.08.64.14.97.21-3.72 2.68-7.31 7.5-8.71 11.7-1.56 4.68-.94 8.33-.32 10.02.63 2.03 2.34 4.59 6.33 5.41l.34.06c1.19.21 2.22.24 3.73.24 3.69 0 7.96-.94 10.68-2.9.3-.22.6-.49.9-.81.51.3 1.36.7 2.16.7.6 0 1.34-.13 1.78-.38 1.04-.58 1.3-1.48 1.75-2.45.58-1.23 1.21-2.93 3.97-5.62.12-.11.24-.21.25-.36 0-.09-.03-.17-.09-.24 0 0-.01-.02-.03-.03zM37.07 51.12c-1.5-3.84.47-12.89 4.93-17.47.68-.64 1.85-1.2 3.45-1.6v1.04c0 1.39 2.25 2.51 5.02 2.51s5.02-1.12 5.02-2.51v-1.08c.16.05.3.1.43.15 5.39 3.83 9.2 10.91 8.32 15.26-.62 2.34-2.18 4.32-4.66 6.06-2.4 1.51-4.98 2.39-8.52 2.53-4.07.04-11.31-.24-13.99-4.89z"/></svg>